<svg xmlns="http://www.w3.org/2000/svg" viewBox="0 0 1280 100" width="100%">
  <path d="M -33.28 93 C 30.72 93 30.72 97 94.72 97 C 158.72 97 158.72 75 222.72 75 C 286.72 75 286.72 77 350.72 77 C 414.72 77 414.72 56 478.72 56 C 542.72 56 542.72 76 606.72 76 C 670.72 76 670.72 8 734.72 8 C 798.72 8 798.72 31 862.72 31 C 926.72 31 926.72 13 990.72 13 C 1054.72 13 1054.72 84 1118.72 84 C 1182.72 84 1182.72 9 1246.72 9 C 1310.72 9 1310.72 83 1374.72 83 L 1280 100 L 0 100 Z" fill="#fafafa"></path>
</svg>